<?xml version="1.0" encoding="UTF-8" standalone="no"?>
<!DOCTYPE svg PUBLIC "-//W3C//DTD SVG 1.1//EN" "http://www.w3.org/Graphics/SVG/1.1/DTD/svg11.dtd">
<svg xmlns="http://www.w3.org/2000/svg" version="1.1" viewBox="0.00 0.00 320.00 90.00">
<g stroke-width="2.00" fill="none" stroke-linecap="butt">
<path stroke="#731701" vector-effect="non-scaling-stroke" d="
  M 131.38 34.04
  L 131.42 36.28"
/>
<path stroke="#731701" vector-effect="non-scaling-stroke" d="
  M 131.55 36.54
  Q 131.53 36.95 131.67 37.30"
/>
<path stroke="#731701" vector-effect="non-scaling-stroke" d="
  M 205.58 63.68
  Q 205.94 63.74 206.31 63.56"
/>
<path stroke="#d06e57" vector-effect="non-scaling-stroke" d="
  M 246.08 56.65
  C 237.34 59.35 228.62 56.77 226.69 46.90
  C 225.46 40.62 226.13 27.84 235.62 29.94
  C 238.47 30.57 239.71 33.94 239.23 36.13
  A 1.08 1.07 6.3 0 0 240.28 37.43
  L 246.44 37.43
  A 1.37 1.36 -0.2 0 0 247.82 36.06
  C 247.75 26.90 241.78 22.80 232.91 23.11
  C 222.73 23.49 218.42 30.91 218.04 40.19
  Q 217.84 44.96 218.31 47.95
  C 220.62 62.54 233.24 66.10 246.03 63.16
  A 0.96 0.95 -6.4 0 0 246.78 62.23
  L 246.78 57.17
  A 0.54 0.54 0.0 0 0 246.08 56.65"
/>
<path stroke="#d06e57" vector-effect="non-scaling-stroke" d="
  M 253.19 43.63
  C 253.20 54.32 257.28 64.10 269.52 64.08
  C 281.75 64.07 285.81 54.28 285.80 43.59
  C 285.79 32.90 281.71 23.13 269.47 23.14
  C 257.23 23.16 253.18 32.94 253.19 43.63"
/>
<path stroke="#808080" vector-effect="non-scaling-stroke" d="
  M 131.88 34.72
  L 131.93 33.50"
/>
<path stroke="#ddd7d6" vector-effect="non-scaling-stroke" d="
  M 207.98 59.27
  Q 207.90 59.66 207.96 60.01"
/>
<path stroke="#d06e57" vector-effect="non-scaling-stroke" d="
  M 261.49 43.62
  C 261.48 48.88 262.17 57.52 269.49 57.52
  C 276.82 57.52 277.51 48.88 277.51 43.62
  C 277.52 38.36 276.83 29.72 269.51 29.72
  C 262.18 29.72 261.49 38.36 261.49 43.62"
/>
<path stroke="#731701" vector-effect="non-scaling-stroke" d="
  M 199.46 47.06
  Q 200.48 47.76 200.25 48.95"
/>
</g>
<path fill="#e52d01" d="
  M 129.41 81.54
  C 118.48 81.61 118.12 76.08 118.14 67.23
  Q 118.19 37.43 118.15 12.01
  Q 118.14 5.42 122.71 2.76
  Q 125.37 1.21 132.06 1.22
  Q 176.56 1.31 297.47 1.36
  C 302.16 1.36 305.64 1.57 307.36 6.60
  Q 307.77 7.79 307.16 10.39
  Q 302.55 30.14 297.34 49.39
  Q 293.42 63.88 291.43 70.93
  Q 289.76 76.82 286.18 79.33
  C 284.40 80.58 280.14 80.96 277.19 80.97
  Q 205.95 81.03 129.41 81.54
  Z
  M 131.38 34.04
  L 131.42 36.28
  Q 131.48 36.41 131.55 36.54
  Q 131.53 36.95 131.67 37.30
  L 131.78 57.99
  A 1.41 1.41 0.0 0 0 131.99 58.73
  Q 134.51 62.82 138.73 64.15
  A 0.64 0.54 -31.3 0 0 138.92 64.18
  L 147.58 64.18
  A 1.63 1.63 0.0 0 0 149.21 62.55
  L 149.21 57.86
  A 1.11 1.10 -0.0 0 0 148.10 56.76
  L 142.35 56.76
  A 2.97 2.96 90.0 0 1 139.39 53.79
  L 139.39 31.68
  A 0.50 0.49 87.5 0 1 139.84 31.18
  L 148.28 30.57
  A 1.09 1.09 0.0 0 0 149.30 29.48
  L 149.30 25.35
  A 1.52 1.52 0.0 0 0 147.78 23.83
  L 140.02 23.83
  A 0.67 0.67 0.0 0 1 139.35 23.16
  L 139.35 12.54
  A 0.96 0.95 75.1 0 0 137.92 11.71
  L 133.26 14.40
  A 3.39 3.37 -15.2 0 0 131.57 17.32
  L 131.57 22.83
  A 1.01 1.01 0.0 0 1 130.56 23.84
  L 126.46 23.84
  A 1.49 1.48 4.5 0 0 124.99 25.09
  Q 124.72 26.88 125.09 28.61
  C 125.72 31.57 128.64 30.97 130.82 31.12
  A 0.81 0.80 83.6 0 1 131.53 31.69
  Q 131.83 32.72 131.38 34.04
  Z
  M 162.18 64.16
  A 3.02 3.01 89.9 0 0 165.19 61.13
  Q 165.17 45.48 165.14 45.00
  C 164.85 38.70 168.07 31.36 175.30 31.18
  A 2.42 2.42 0.0 0 0 177.65 28.58
  L 177.38 24.80
  A 2.15 2.15 0.0 0 0 174.94 22.83
  Q 169.53 23.61 166.14 26.63
  A 0.94 0.94 0.0 0 1 164.58 26.01
  Q 164.57 25.93 164.74 25.60
  A 1.17 1.16 13.5 0 0 163.70 23.91
  L 157.90 23.91
  A 1.07 1.07 0.0 0 0 156.83 24.98
  L 156.83 61.65
  A 2.51 2.50 90.0 0 0 159.33 64.16
  L 162.18 64.16
  Z
  M 205.58 63.68
  Q 205.94 63.74 206.31 63.56
  Q 209.15 63.76 208.81 61.32
  Q 208.54 59.46 208.56 56.97
  Q 208.64 44.53 208.37 32.75
  Q 208.32 31.00 207.55 29.75
  C 205.72 26.80 203.43 24.32 199.76 23.48
  Q 192.82 21.90 187.04 24.34
  Q 181.55 26.66 180.15 33.26
  A 2.29 2.28 5.3 0 0 182.45 36.02
  L 186.50 35.91
  A 2.77 2.76 -88.9 0 0 189.18 33.33
  C 189.43 29.44 194.64 30.05 197.58 30.26
  A 1.64 1.60 -22.5 0 1 198.48 30.62
  C 201.20 32.88 200.98 35.75 200.67 39.10
  A 0.73 0.73 0.0 0 1 199.92 39.77
  C 192.57 39.64 184.98 41.61 180.42 47.63
  A 3.21 3.01 71.6 0 0 179.88 48.80
  L 178.98 52.87
  A 1.71 1.68 -52.9 0 0 179.13 54.01
  Q 179.50 54.45 179.73 56.45
  A 5.45 5.45 0.0 0 0 180.18 58.06
  C 183.81 66.02 193.60 65.78 199.89 61.69
  A 0.53 0.53 0.0 0 1 200.62 61.84
  Q 202.17 64.12 205.58 63.68
  Z
  M 246.08 56.65
  C 237.34 59.35 228.62 56.77 226.69 46.90
  C 225.46 40.62 226.13 27.84 235.62 29.94
  C 238.47 30.57 239.71 33.94 239.23 36.13
  A 1.08 1.07 6.3 0 0 240.28 37.43
  L 246.44 37.43
  A 1.37 1.36 -0.2 0 0 247.82 36.06
  C 247.75 26.90 241.78 22.80 232.91 23.11
  C 222.73 23.49 218.42 30.91 218.04 40.19
  Q 217.84 44.96 218.31 47.95
  C 220.62 62.54 233.24 66.10 246.03 63.16
  A 0.96 0.95 -6.4 0 0 246.78 62.23
  L 246.78 57.17
  A 0.54 0.54 0.0 0 0 246.08 56.65
  Z
  M 253.19 43.63
  C 253.20 54.32 257.28 64.10 269.52 64.08
  C 281.75 64.07 285.81 54.28 285.80 43.59
  C 285.79 32.90 281.71 23.13 269.47 23.14
  C 257.23 23.16 253.18 32.94 253.19 43.63
  Z"
/>
<path fill="#ffffff" d="
  M 131.88 34.72
  L 131.93 33.50
  Q 132.98 32.83 133.03 32.38
  A 2.12 1.97 0.7 0 0 130.77 30.23
  Q 130.06 30.28 128.45 30.31
  A 1.94 1.94 0.0 0 1 127.48 30.05
  Q 125.06 28.61 125.74 25.47
  A 0.67 0.67 0.0 0 1 126.40 24.93
  L 131.39 24.93
  A 0.63 0.63 0.0 0 0 132.02 24.24
  Q 131.94 23.43 132.62 22.98
  A 0.81 0.80 -17.0 0 0 132.98 22.31
  L 132.98 16.92
  A 1.48 1.47 66.3 0 1 133.36 15.93
  Q 134.92 14.23 137.61 12.94
  A 0.32 0.32 0.0 0 1 138.07 13.23
  L 138.07 22.76
  A 2.17 2.17 0.0 0 0 140.24 24.93
  L 147.45 24.93
  A 0.62 0.61 -90.0 0 1 148.06 25.55
  L 148.06 28.56
  A 0.52 0.51 -84.1 0 1 147.44 29.07
  Q 145.43 28.64 144.82 29.82
  A 0.84 0.84 0.0 0 1 144.08 30.26
  L 139.92 30.26
  A 1.90 1.89 90.0 0 0 138.03 32.16
  L 138.05 54.20
  A 0.94 0.93 -71.2 0 0 138.39 54.90
  Q 138.39 54.91 138.54 54.96
  A 0.62 0.62 0.0 0 1 138.94 55.54
  Q 138.97 56.82 140.24 57.73
  A 0.65 0.63 -25.3 0 0 140.63 57.86
  L 147.73 57.86
  A 0.40 0.39 -90.0 0 1 148.12 58.26
  L 148.12 62.82
  A 0.22 0.22 0.0 0 1 147.90 63.04
  Q 142.69 63.18 138.66 62.83
  Q 137.26 62.71 136.49 61.98
  Q 136.08 61.59 133.30 58.90
  A 1.16 1.15 -68.0 0 1 132.95 58.07
  L 132.95 38.05
  A 1.25 1.20 24.3 0 0 132.61 37.21
  Q 131.65 36.19 131.88 34.72
  Z"
/>
<path fill="#bbafac" d="
  M 246.08 56.65
  A 0.54 0.54 0.0 0 1 246.78 57.17
  L 246.78 62.23
  A 0.96 0.95 -6.4 0 1 246.03 63.16
  C 233.24 66.10 220.62 62.54 218.31 47.95
  Q 217.84 44.96 218.04 40.19
  C 218.42 30.91 222.73 23.49 232.91 23.11
  C 241.78 22.80 247.75 26.90 247.82 36.06
  A 1.37 1.36 -0.2 0 1 246.44 37.43
  L 240.28 37.43
  A 1.08 1.07 6.3 0 1 239.23 36.13
  C 239.71 33.94 238.47 30.57 235.62 29.94
  C 226.13 27.84 225.46 40.62 226.69 46.90
  C 228.62 56.77 237.34 59.35 246.08 56.65
  Z"
/>
<path fill="#bbafac" d="
  M 269.47 23.14
  C 281.71 23.13 285.79 32.90 285.80 43.59
  C 285.81 54.28 281.75 64.07 269.52 64.08
  C 257.28 64.10 253.20 54.32 253.19 43.63
  C 253.18 32.94 257.23 23.16 269.47 23.14
  Z
  M 261.49 43.62
  C 261.48 48.88 262.17 57.52 269.49 57.52
  C 276.82 57.52 277.51 48.88 277.51 43.62
  C 277.52 38.36 276.83 29.72 269.51 29.72
  C 262.18 29.72 261.49 38.36 261.49 43.62
  Z"
/>
<path fill="#000000" d="
  M 34.03 56.62
  A 0.54 0.54 0.0 0 1 34.73 57.13
  L 34.73 62.19
  A 0.96 0.95 -6.5 0 1 33.98 63.12
  C 21.22 66.06 8.61 62.51 6.30 47.95
  Q 5.83 44.96 6.02 40.20
  C 6.40 30.93 10.70 23.52 20.86 23.14
  C 29.72 22.82 35.68 26.91 35.75 36.06
  A 1.37 1.36 -0.2 0 1 34.38 37.43
  L 28.23 37.43
  A 1.07 1.07 0.0 0 1 27.18 36.13
  C 27.66 33.95 26.42 30.58 23.57 29.95
  C 14.09 27.86 13.43 40.62 14.66 46.89
  C 16.60 56.75 25.31 59.32 34.03 56.62
  Z"
/>
<path fill="#000000" d="
  M 73.69 43.57
  C 73.70 54.22 69.66 63.96 57.48 63.98
  C 45.29 63.99 41.22 54.26 41.21 43.61
  C 41.20 32.96 45.24 23.21 57.43 23.20
  C 69.61 23.18 73.68 32.92 73.69 43.57
  Z
  M 49.39 43.64
  C 49.39 48.94 50.10 57.64 57.48 57.63
  C 64.85 57.62 65.54 48.92 65.53 43.62
  C 65.53 38.32 64.82 29.62 57.44 29.63
  C 50.07 29.64 49.38 38.34 49.39 43.64
  Z"
/>
<path fill="#000000" d="
  M 111.95 62.87
  A 0.29 0.28 90.0 0 1 111.67 63.16
  L 105.08 63.16
  A 0.30 0.30 0.0 0 1 104.78 62.86
  Q 104.72 45.29 104.70 39.50
  C 104.69 35.89 104.83 30.03 99.74 30.61
  C 93.55 31.31 91.08 41.05 90.93 46.27
  Q 90.79 50.94 90.92 62.46
  A 0.69 0.69 0.0 0 1 90.23 63.16
  L 84.15 63.16
  A 0.63 0.63 0.0 0 1 83.52 62.53
  L 83.52 24.95
  A 0.93 0.93 0.0 0 1 84.45 24.02
  L 90.00 24.02
  A 0.88 0.88 0.0 0 1 90.88 24.90
  L 90.88 28.18
  A 0.28 0.28 0.0 0 0 91.39 28.35
  C 98.43 18.89 111.95 22.53 111.98 35.00
  Q 112.00 47.10 111.95 62.87
  Z"
/>
<path fill="#ffffff" d="
  M 176.63 28.04
  Q 176.94 28.10 176.97 28.13
  A 0.42 0.42 0.0 0 1 176.87 28.84
  Q 176.26 29.11 175.83 29.77
  A 0.86 0.85 22.0 0 1 174.97 30.13
  Q 173.75 29.90 172.88 30.57
  C 172.10 31.18 171.60 30.96 170.77 31.11
  A 1.04 1.01 16.4 0 0 170.24 31.39
  L 166.49 35.14
  A 2.16 2.12 80.0 0 0 166.01 35.84
  L 164.93 38.31
  A 1.46 0.10 -51.4 0 1 164.38 39.11
  Q 163.96 39.67 164.03 40.75
  Q 164.32 44.99 164.18 60.73
  A 2.60 2.59 0.2 0 1 161.58 63.30
  L 159.33 63.30
  A 1.46 1.45 0.0 0 1 157.87 61.85
  L 157.87 25.32
  A 0.41 0.40 -90.0 0 1 158.27 24.91
  L 162.50 24.91
  A 0.44 0.44 0.0 0 1 162.94 25.35
  Q 162.98 27.94 166.04 27.92
  A 1.19 1.18 -67.8 0 0 166.89 27.56
  Q 167.54 26.91 168.49 26.03
  Q 169.67 24.94 170.46 24.96
  Q 170.55 24.97 172.31 24.87
  A 0.80 0.78 -75.6 0 0 172.95 24.48
  Q 173.56 23.45 175.51 23.84
  A 0.66 0.66 0.0 0 1 176.05 24.49
  L 176.05 27.34
  A 0.71 0.71 0.0 0 0 176.63 28.04
  Z"
/>
<path fill="#ffffff" d="
  M 207.98 59.27
  Q 207.90 59.66 207.96 60.01
  Q 207.33 59.88 207.11 60.20
  Q 206.84 60.57 207.14 60.83
  Q 207.30 60.97 207.74 61.13
  Q 208.12 61.27 208.17 61.45
  Q 208.22 61.68 208.18 61.79
  A 0.41 0.41 0.0 0 1 207.80 62.05
  Q 207.36 62.06 206.68 62.04
  Q 206.29 62.02 205.94 62.66
  Q 205.30 63.85 203.39 62.88
  Q 202.87 62.61 200.91 60.54
  A 0.62 0.62 0.0 0 0 200.13 60.44
  Q 195.88 63.04 193.51 63.34
  Q 191.17 63.65 189.17 63.48
  Q 183.60 63.00 181.21 57.81
  A 2.93 2.85 35.8 0 1 180.95 56.33
  Q 181.11 54.51 180.06 53.59
  A 0.73 0.72 -56.7 0 1 179.89 52.73
  Q 180.10 52.31 180.50 52.03
  A 0.88 0.88 0.0 0 0 180.89 51.30
  L 180.89 49.01
  A 1.38 1.36 68.2 0 1 181.30 48.03
  L 183.79 45.53
  A 1.97 1.89 -75.0 0 1 184.58 45.05
  Q 185.71 44.69 186.84 43.61
  A 2.43 2.38 -74.0 0 1 187.86 43.03
  L 195.29 41.05
  A 4.77 4.53 -50.6 0 1 196.42 40.91
  L 199.94 40.91
  A 1.99 1.98 -90.0 0 0 201.92 38.92
  L 201.92 34.07
  A 1.26 1.22 36.1 0 0 201.85 33.66
  Q 200.81 31.02 198.81 29.39
  A 1.32 1.32 0.0 0 0 197.87 29.09
  Q 196.18 29.20 192.81 29.07
  Q 191.58 29.02 189.77 29.99
  Q 187.55 31.18 188.06 33.21
  A 0.56 0.55 -7.2 0 1 187.52 33.90
  Q 186.41 33.90 186.04 34.55
  A 1.37 1.34 9.7 0 1 185.05 35.23
  Q 182.46 35.61 181.06 33.74
  A 0.50 0.50 0.0 0 1 181.24 32.99
  Q 181.25 32.98 181.45 32.94
  A 0.55 0.54 -6.4 0 0 181.87 32.43
  Q 181.95 30.48 183.38 28.10
  C 184.22 26.70 185.41 27.04 186.32 25.95
  Q 187.35 24.73 189.32 24.87
  A 1.92 1.86 -54.0 0 0 190.19 24.72
  Q 194.79 22.77 198.51 24.64
  A 2.41 2.38 -30.1 0 0 199.51 24.90
  Q 201.48 24.97 202.13 25.61
  Q 204.55 27.99 206.69 30.08
  A 1.23 1.23 0.0 0 1 207.05 30.95
  L 207.05 58.30
  A 0.86 0.84 12.6 0 0 207.55 59.07
  L 207.98 59.27
  Z
  M 198.79 46.18
  C 194.41 46.25 190.58 45.96 188.30 49.45
  C 186.25 52.58 186.86 56.95 190.60 58.04
  Q 192.31 58.54 195.12 57.83
  Q 199.80 56.65 201.45 50.27
  C 201.94 48.37 202.66 46.45 200.89 45.37
  A 0.70 0.70 0.0 0 0 199.96 45.55
  Q 199.91 45.62 199.87 45.67
  A 1.50 1.50 0.0 0 1 198.79 46.18
  Z"
/>
<path fill="#e52d01" d="
  M 269.51 29.72
  C 276.83 29.72 277.52 38.36 277.51 43.62
  C 277.51 48.88 276.82 57.52 269.49 57.52
  C 262.17 57.52 261.48 48.88 261.49 43.62
  C 261.49 38.36 262.18 29.72 269.51 29.72
  Z"
/>
<path fill="#000000" d="
  M 131.93 33.50
  L 131.88 34.72
  L 131.93 33.50
  Z"
/>
<path fill="#000000" d="
  M 131.38 34.04
  L 131.42 36.28
  L 131.38 34.04
  Z"
/>
<path fill="#000000" d="
  M 131.67 37.30
  Q 131.53 36.95 131.55 36.54
  L 131.67 37.30
  Z"
/>
<path fill="#e52d01" d="
  M 199.46 47.06
  Q 200.48 47.76 200.25 48.95
  Q 199.60 55.92 193.28 57.06
  Q 190.64 57.54 188.63 55.30
  A 1.57 1.56 -68.9 0 1 188.24 54.41
  Q 187.80 49.62 191.79 48.01
  Q 194.95 46.74 199.46 47.06
  Z"
/>
<path fill="#000000" d="
  M 200.25 48.95
  Q 200.48 47.76 199.46 47.06
  Q 199.79 46.76 200.09 46.91
  Q 200.37 47.04 200.44 47.48
  Q 200.55 48.22 200.25 48.95
  Z"
/>
<path fill="#bbafac" d="
  M 207.96 60.01
  Q 207.90 59.66 207.98 59.27
  Q 208.80 60.00 207.96 60.01
  Z"
/>
<path fill="#000000" d="
  M 206.31 63.56
  Q 205.94 63.74 205.58 63.68
  L 206.31 63.56
  Z"
/>
</svg>
