<?xml version="1.0" encoding="UTF-8"?>
<svg width="24" height="24" version="1.1" viewBox="0 0 24 24" xmlns="http://www.w3.org/2000/svg">
 <g transform="scale(0.02)">
  <path d="m1187.4 504.03c14.184-46.871 13.031-85.754-2.2578-115.5-13.777-26.832-35.004-42.949-54.742-55.871-13.859-51.719-50.676-95.543-109.5-112.87-16.078-25.586-35.113-47.914-59.258-64.129-23.93-16.078-53.062-24.793-84.371-25.117-54.898-50.102-115.04-76.621-175.86-78.742-2.1602-0.085937-4.2227 0.011719-6.3711 0-32.461-0.16797-65.27 7.0078-97.129 20.258-34.164-9.6016-82.211-21.77-140.24 6-36.504-6.168-73.43 6.2656-104.26 31.871-23.113-2.7344-45.059 1.2461-63 10.129-19.945 9.875-34.777 24.121-48 38.242-64.738 20.785-105.24 50.82-129.74 84.371-24.035 32.891-33.938 64.715-46.5 90.742-23.148 17.52-45.047 40.043-56.629 72.371-12.422 34.691-12.719 77.449-0.74219 132.37-7.5117 68.809 5.2695 124.79 42 161.26 34.848 34.598 85.824 45.215 142.5 40.5 42.742 27.961 98.004 29.711 157.87 20.258 32.449 22.309 69.996 40.391 114.37 49.859 12.59 38.293 21.238 78.121 37.5 116.26 18.422 43.223 50.352 84.551 106.12 106.87 30.254 12.121 56.258 38.809 72.371 60.371 0.085937 0.10938 0.28906 0.26562 0.37109 0.37109 9.2539 14.855 14.676 26.746 29.629 38.258 15.707 12.07 34.008 14.34 54.742 15.742 54.539 3.4688 96.551-20.316 127.86-45.742l0.003907-0.39844c1.4023-1.1406 2.9531-2.0898 4.1289-3.3711 4.9688-5.4609 7.1758-11.785 8.2578-16.5 2.1484-9.4336 1.1055-15-0.37109-22.129-2.9531-14.27-9.8867-33.742-26.629-70.5-0.92578-2.0273-1.6797-4.2227-2.6289-6.3711 14.398-0.35938 28.453-2.9141 42-6.3711 48.91-12.48 91.969-39.457 120.74-60.742 46.402-34.332 77.746-60.793 96.742-88.871 21.684-32.051 30.742-91.906 15.742-127.12 5.2188-4.2344 10.066-8.7852 14.617-13.871 37.957-42.461 41.461-105.81 20.664-181.89zm-416.61 577.11c-13.176-0.91016-17.207-1.7148-18-1.8711 0.5625 0.30078-4.6445-6.3945-15.371-23.258-0.42188-0.69531-1.0312-1.2227-1.5-1.8711-20.34-27.277-53.258-63.504-101.63-82.871-38.891-15.562-54.59-37.453-69-71.258-9.7188-22.777-18.133-51.613-27.371-82.5 12.121-0.046875 24.539-0.96094 37.5-2.2578 23.195 8.4258 51.672 22.547 89.258 24 19.934 0.76953 52.453-11.074 77.629-22.871-2.9297 41.438 4.4297 83.461 28.5 115.87 6.4453 8.6875 13.5 16.43 21.359 22.871 8.8789 22.246 17.977 43.309 26.258 61.5 10.32 22.68 14.977 35.965 18 45-19.648 13.746-38.523 21.195-65.633 19.516zm310.5-292.87c-12.254 17.148-37.848 41.375-81.742 73.859-24.168 17.879-63.086 41.09-97.5 49.871-17.207 4.3789-32.711 5.1016-45 2.2578-49.57-16.414-58.836-92.629-41.258-134.99 22.031-7.957 42.445-21.516 61.871-39.742 13.969 6.7305 28.633 12.625 45.742 14.629 23.363 2.7461 49.68-3.3125 73.129-18.371 33.84 1.7266 64.824-0.23828 92.258-6.7422 8.3906 19.484 8.1484 40.699-7.5 59.227zm34.875-147c-16.547 18.516-52.523 30.492-112.13 28.129-3.875-26.23-4.8711-39.168-4.5-41.629 0.19141-1.2461-0.27734-0.37109 0.74219-1.8711s4.0664-4.9062 8.6289-10.129c8.543-9.3945 7.7773-23.879-1.6914-32.352-4.2617-3.8164-9.8164-5.9141-15.562-5.8906-6.8164 0.035156-13.262 3.0586-17.629 8.2578-4.2461 4.8477-7.8242 8.7227-11.629 14.258-3.8047 5.5312-7.4531 13.355-8.6289 21-2.3398 15.266 0.79297 28.547 4.8711 55.871 0.023438 1.2617 0.14453 2.5078 0.37109 3.7422-10.285 6.9492-18.023 8.2695-27.742 7.1289-11.594-1.3555-26.207-7.9219-42-17.629-13.453-8.293-33.109-5.4727-43.5 6.3711-26.242 29.902-42.07 40.094-64.117 43.129-0.34766-0.64844-0.73047-1.2617-1.1289-1.8711-6.7812-12.898-9.707-19.523-10.5-23.629-0.79297-4.1055-0.64844-8.7617 3.3711-22.5 3.7422-12.098-3.0977-24.91-15.289-28.633-2.4492-0.74219-5.0156-1.0938-7.5859-0.99609-10.223 0.23828-19.055 7.1055-21.742 16.871-4.8828 16.715-6.7422 30.695-4.1289 44.258 2.6172 13.559 8.3633 23.387 15 36 0.23828 0.51562 0.48047 1.0078 0.74219 1.5-32.195 27.77-53.594 32.629-73.129 31.871-17.879-0.69531-37.906-8.8086-61.129-17.258 0.30078-2.1133 0.30078-4.2617 0-6.3711-4.7656-39.492-1.9062-56.617 2.2578-65.258 4.1523-8.6406 12.492-14.398 28.5-28.5 9.8516-8.0391 11.27-22.477 3.1797-32.258-4.8828-5.8789-12.395-8.9766-20.051-8.2578-5.1836 0.39453-10.055 2.5078-13.871 6-13.5 11.891-29.594 22.008-39.742 43.129-9.7695 20.305-11.258 46.066-6.7422 86.258-80.219 6.3242-130.91-15.312-177.37-49.5 0.19141-0.98438 0.3125-1.9922 0.37109-3 2.2812-20.746 6.3125-25.453 9.7422-28.5 3.4336-3.0469 11.809-6.3008 26.629-12.742 11.688-5.0898 17.004-18.59 11.879-30.18-3.8047-8.6172-12.527-14.051-22.008-13.703-2.8438 0.12109-5.6406 0.74219-8.2578 1.8711-11.617 5.0625-25.297 8.125-39 20.258-13.703 12.121-21.828 31.598-24.742 58.129-0.17969 0.86328-0.30078 1.7539-0.37109 2.6289-53.375 7.6914-91.066 2.0898-112.12-15-7.043-5.7109-16.488-8.6289-25.5-7.5-50.496 6.4219-82.32-2.5938-100.5-20.629-18.18-18.035-29.555-51.852-22.129-111.74 0.17969-1.4141 0.38281-2.6992 0.37109-4.1289 3.9609-1.3555 7.8477-2.2578 11.258-2.6289 10.188-1.1172 19.645 0.73047 35.258 10.5 10.355 7.3906 24.793 5.0625 32.258-5.207 7.4648-10.273 5.1016-24.602-5.2578-31.992-0.73047-0.52734-1.4766-0.99609-2.2578-1.4297-16.234-10.164-32.82-16.246-49.117-17.629-5.4375-0.45703-10.777-0.58984-16.129 0-4.7148 0.51562-9.3945 1.8242-13.871 3-3.3594-28.754-0.88672-48.637 4.1289-62.629 5.2305-14.617 13.367-25.164 25.871-35.629 12.926 10.5 33.469 27.254 63 35.629 20.125 5.7109 44.125 7.2227 71.629 1.8711 1.6328 0.046876 3.2656-0.085937 4.8711-0.37109 4.0312-0.78125 7.9453-1.9219 11.629-3.3711 0.12109-0.023437-0.12109-0.33594 0-0.37109 7.8125-2.2188 16.094-4.8594 24.371-8.2578 36.863-15.059 60.77-13.262 77.617-7.5s27.504 16.43 34.5 24.742c8.1484 9.7578 22.715 11.125 32.555 3.0352 9.8398-8.0742 11.219-22.535 3.0703-32.293-9.5742-11.398-27.215-29.461-55.129-39-20.965-7.1641-47.555-9.1094-78.371-1.8711 1.2344-16.609-0.26562-31.02 0-34.871 1.0312-12.602-8.4375-23.664-21.145-24.695-0.94922-0.070313-1.9062-0.097656-2.8555-0.046875-11.941 0.48047-21.527 9.9102-22.129 21.742-1.0938 15.574 1.4414 30.59-0.37109 42-0.91016 5.7109-2.9648 9.2773-4.5 11.258-0.70703 0.91016-1.2344 1.9688-2.2578 2.6289-25.848 7.2344-45.035 5.5781-60.742 1.1289-19.309-5.4844-33.59-16.031-45.742-25.871 14.074-29.473 23.004-55.246 38.242-76.117 17.305-23.688 42.996-45.168 103.5-63 5.9531-1.7539 11.242-5.1602 15.371-9.7422 12.527-13.934 24.445-24.277 34.5-29.258 7.9922-3.9609 14.809-5.8438 25.129-4.1289 7.3672 15.07 18.383 30.91 27 49.129 0.070312 0.875 0.20312 1.7539 0.37109 2.6289 1.5977 7.7773-0.097657 9.9609-5.6289 15.371s-15.672 10.691-24.371 14.258c-11.797 4.9336-17.328 18.406-12.359 30.121 4.9688 11.699 18.562 17.184 30.359 12.254 11.305-4.6211 26.102-11.363 39-24 7.4883 6.4062 15.742 10.523 23.629 12.371 16.859 3.9492 31.691 1.6094 37.129 1.5 12.742 0.48047 23.473-9.3828 23.965-22.02 0.48047-12.648-9.4688-23.281-22.211-23.762-0.83984-0.023437-1.668-0.011718-2.4961 0.035156-10.766 0.21484-20.027 0.91016-25.5-0.37109-5.4727-1.2852-6.5156-0.046875-9.3711-10.129-8.3398-29.508-24.289-54.348-33-68.258 23.578-22.859 39.469-26.629 60-20.258 8.8203 2.7461 18.59 1.5469 26.629-3 41.375-23.629 61.246-18.18 90.742-9-0.89844 11.23-0.20312 24.168 1.5 39.371 3.457 30.758 11.004 69.469 21 104.63 1.4414 5.0742-0.34766 22.801-9 36-8.6406 13.199-20.566 22.453-40.129 22.5-12.742-0.68359-23.629 9-24.312 21.625-0.69531 12.637 9.0703 23.438 21.805 24.121 0.83984 0.046875 1.6797 0.046875 2.5078 0 35.891-0.085937 63.852-20.184 79.129-43.5 11.426-17.449 17.629-36.227 17.258-54.742 6.8633 1.8359 13.5 3.2773 19.129 4.1289 12.637 1.8477 24.371-6.8047 26.258-19.344 1.8594-12.527-6.8633-24.18-19.5-26.027-8.4258-1.2734-20.438-4.332-28.5-8.2578-8.0625-3.9258-8.6641-6.4922-8.6289-6-0.28906-3.0117-1.1875-5.9531-2.6289-8.6289-3.8164-18.492-6.9375-36.73-8.6289-51.742-1.4297-12.742-1.4297-22.547-1.1289-28.5 0.82812-0.9375 1.5859-1.9453 2.2578-3 28.754-13.164 55.824-19.922 82.5-19.5 44.137 0.70703 87.191 21.539 133.86 65.617-0.26562 0.49219-0.51562 0.99609-0.74219 1.5-4.8242 11.531-21.18 44.352-53.617 59.258-11.594 5.3398-16.621 18.996-11.23 30.492 5.375 11.496 19.129 16.488 30.719 11.137 49.754-22.848 70.5-68.004 76.871-83.258 0.48047-1.2227 0.85156-2.4727 1.1289-3.7422 18.434 0.035156 32.699 4.9805 46.5 14.258 12.539 8.4258 24.961 21.07 36.371 37.871-0.20312 0.32422-1.1289 1.8711-1.1289 1.8711-0.86328 1.1758-1.6211 2.4375-2.2578 3.7422 0 0-2.4961 5.7227-4.8711 10.871-1.4023 2.8086-2.9414 5.8203-4.1289 8.6289-4.1055 7.8125-9.2383 16.535-15.371 24.371-7.2617 9.2891-15.445 15.91-21 18-5.5547 2.0898-8.1133 2.9648-17.258-3.7422-10.332-7.5-24.84-5.2695-32.398 4.9922-7.5586 10.246-5.3047 24.637 5.0273 32.137 19.152 14.062 42.961 16.598 61.129 9.7422 7.0781-2.6758 13.141-6.707 18.742-10.871 4.7773 12.023 11.438 23.977 19.5 36 6.3828 10.957 20.508 14.699 31.559 8.3633 11.039-6.3359 14.809-20.352 8.4258-31.297-0.51562-0.88672-1.1055-1.7539-1.7383-2.5547-11.855-17.688-17.496-30.324-18.742-40.871-1.1992-10.105 0.86328-20.461 9.7422-36.371 49.176 10.789 64.523 33.336 72.371 77.242 1.6562 9.0859 7.1406 17.195 15 22.129 21.121 13.309 36.07 24.492 42.742 37.5 5.6992 11.09 8.8789 27.098 0.74219 57.371-9.5391 6.0703-26.977 8.7344-44.258 7.5-9.3711-0.67188-18.504-2.2305-25.5-4.1289-6.9961-1.8945-12.77-5.207-11.258-4.1289-10.441-7.3906-24.949-5.0039-32.398 5.3633-7.4648 10.355-5.0391 24.742 5.3984 32.137 8.2422 5.832 15.863 8.1602 25.871 10.871 10.008 2.7109 21.84 4.7266 34.5 5.6289 14.16 1.0078 29.809 0.79297 45-3 16.023 61.375 9.2422 96.043-7.4492 114.74z" fill="#C00000"/>
  <path d="m395.09 503.99c-0.22656 0.21484-0.45703 0.44531-0.67188 0.66016-15.926 15.719-42.434 35.543-59.41 39.492-8.4961 1.9805-12.672 1.4297-17.555-2.1484-4.8945-3.5625-12.254-12.949-17.555-34.234-2.6758-10.836-12.828-18.203-24.059-17.41-11.688 0.82813-20.891 10.223-21.406 21.828-1.2734 27.492-6.7188 36.098-11.785 41.039-5.0625 4.9453-14.543 7.9805-29.23 15.625-14.004 7.3086-31.234 17.891-43.055 37.344-6.7578 10.738-3.4688 24.863 7.3555 31.57 10.824 6.707 25.066 3.4219 31.824-7.3086 0.13281-0.21484 0.26562-0.42188 0.38281-0.63672 5.6641-9.3242 13.176-14.23 25.02-20.398 9.3828-4.8828 25.176-9.0977 40.043-23.617 3.5391-3.457 6.7578-7.4766 9.625-11.93 1.8125 1.6445 3.4453 3.5625 5.4102 5.0039 16.957 12.359 38.004 13.957 55.441 9.8984 34.871-8.1016 62.832-33.18 81.551-51.66 9.2148-8.7461 9.5391-23.258 0.73047-32.387-8.8242-9.1523-23.441-9.4766-32.656-0.73047z" fill="#C00000"/>
  <path d="m938.18 533.96c-0.52734-0.046875-1.0547-0.085937-1.5859-0.10938-5.2578-0.34766-18.527-3.3945-25.98-6.9258-0.68359-0.3125-0.86328-0.46875-1.0781-0.58984 5.7617-16.5 6.0352-36.805-3.3711-55.355-10.535-20.773-30.613-38.543-61.824-55.477-3.3711-1.9062-7.1758-2.9297-11.062-2.9883-12.742-0.17969-23.242 9.9375-23.41 22.586-0.13281 8.6289 4.6445 16.598 12.348 20.605 26.316 14.281 38.305 27.254 42.707 35.902 4.3789 8.6523 3.7422 13.621 0.12109 21.59-7.2461 15.949-33.277 36-48.719 46.043-10.68 6.9258-13.68 21.133-6.6953 31.727 6.9844 10.586 21.301 13.57 31.98 6.6367 0.035157-0.011718 0.058594-0.035156 0.097657-0.058593 10.188-6.625 27.277-17.102 42.457-32.566 2.1719 1.2344 4.4297 2.3047 6.6133 3.3359 14.676 6.9375 29.809 10.355 42.816 11.219 12.695 1.2461 24.012-7.9336 25.273-20.52 1.2617-12.574-8.0156-23.805-20.688-25.055z" fill="#C00000"/>
  <path d="m750.25 482.89c-0.61328-0.17969-1.2461-0.32422-1.8711-0.44531-16.309-3.8984-34.129-7.3555-46.43-16.465-4.5977-3.3945-8.9297-7.2969-12.383-12.887-0.023437-0.023438 0.023438-0.085938 0-0.12109-0.74219-2.7461-2.0156-5.3398-3.7305-7.6328-3.4453-9-5.2305-21.348-4.3203-39.133 0.81641-12.625-8.832-23.52-21.562-24.336-0.99609-0.058594-1.9922-0.058594-2.9766 0-11.867 0.73047-21.238 10.285-21.66 22.066-1.2227 24.203 2.5781 44.652 9.7422 61.199 3.7695 17.207-2.1836 30-11.438 39.012-9.3711 9.1445-21.301 10.98-24.539 9.7812-11.617-5.1953-25.297-0.058593-30.539 11.473s-0.058594 25.105 11.555 30.301c0.9375 0.42188 1.8945 0.76953 2.8672 1.0547 26.496 9.8281 53.617-0.99609 73.008-19.934 7.668-7.4883 14.23-16.754 18.875-27.312 20.711 11.746 41.746 14.797 52.68 17.41 12.266 3.4805 25.055-3.5508 28.559-15.719 3.5195-12.148-3.5742-24.832-15.836-28.312z" fill="#C00000"/>
 </g>
</svg>