<?xml version="1.0" encoding="UTF-8"?>
<svg width="24" height="24" version="1.1" viewBox="0 0 24 24" xmlns="http://www.w3.org/2000/svg">
 <path d="m0.45 12c0-6.4125 5.175-11.588 11.55-11.55 6.375 0 11.55 5.175 11.55 11.588 0 6.375-5.2125 11.588-11.588 11.55s-11.55-5.2125-11.512-11.588zm6.5625 0.375c0.1125 2.625 2.4375 4.575 4.6125 4.6125v-2.85h0.75v2.888c2.738-0.1875 4.575-2.55 4.6125-4.65h-2.85v-0.75h2.888c-0.1875-2.625-2.4-4.538-4.65-4.6125v2.85h-0.75v-2.85c-2.475 0.1125-4.5 2.25-4.6125 4.65h2.85v0.75c-0.4875-0.0375-2.4-0.0375-2.85-0.0375zm5.3625 10.462c5.85-0.15 10.388-5.138 10.425-10.462h-2.138c-0.15 2.25-0.975 4.162-2.55 5.738s-3.525 2.4-5.738 2.55v2.175zm-0.75-21.675c-6.112 0.15-10.462 5.438-10.425 10.462h2.138c0.15-2.25 0.9375-4.162 2.55-5.738 1.575-1.575 3.488-2.4 5.738-2.55v-2.175zm11.175 10.462c-0.075-5.588-4.838-10.35-10.425-10.425v1.9125 0.15c4.95 0.675 7.688 3.45 8.362 8.362h2.062zm-11.175 9.038c-2.25-0.15-4.162-0.975-5.775-2.55-1.575-1.575-2.4-3.525-2.55-5.738h-2.175c0.15 5.962 5.25 10.425 10.462 10.425 0.0375-0.7125 0.0375-1.425 0.0375-2.138zm0-16.575c-4.312 0.15-7.5 3.9-7.538 7.538h2.1c0.4875-3.15 2.25-4.95 5.4-5.4 0.0375-0.7125 0.0375-1.425 0.0375-2.138zm0.75 15.825c4.162-0.15 7.462-3.675 7.538-7.538h-2.138c-0.4875 3.15-2.288 4.95-5.4 5.4v2.138zm-8.288-7.538c0.1875 4.312 3.788 7.462 7.538 7.538v-2.138c-3.15-0.4875-4.95-2.288-5.4-5.4h-2.138zm15.825-0.75c-0.1125-4.088-3.638-7.462-7.538-7.538v2.1c3.15 0.4875 4.95 2.288 5.4 5.4 0.7125 0.0375 1.425 0.0375 2.138 0.0375zm-7.912-2.812c-1.7625 0-3.188 1.425-3.188 3.188s1.425 3.188 3.188 3.188 3.188-1.425 3.188-3.188-1.425-3.188-3.188-3.188zm0 4.388c-0.6375 0-1.2-0.525-1.2-1.2 0-0.6375 0.525-1.2 1.2-1.2 0.6375 0 1.2 0.525 1.2 1.2 0 0.6375-0.5625 1.2-1.2 1.2z" fill="#C00000"/>
</svg>