<?xml version="1.0" encoding="UTF-8"?>
<svg width="24" height="24" version="1.1" viewBox="0 0 24 24" xmlns="http://www.w3.org/2000/svg">
 <g transform="scale(0.02)">
  <path fill="#C00000" d="m980.48 516.28c-6.6094 0-12-5.3906-12-12s5.3906-12 12-12h69.75c6.6094 0 12 5.3906 12 12s-5.3906 12-12 12zm-45.047-191.9c-5.7188 3.2812-13.031 1.3125-16.312-4.4062s-1.3125-13.031 4.4062-16.312l60.422-34.875c5.7188-3.2812 13.031-1.3125 16.312 4.4062s1.3125 13.031-4.4062 16.312zm-134.44-145.26c-3.2812 5.7188-10.594 7.6875-16.312 4.4062s-7.6875-10.594-4.4062-16.312l34.875-60.422c3.2812-5.7188 10.594-7.6875 16.312-4.4062s7.6875 10.594 4.4062 16.312zm-581.58 313.18c6.6094 0 12 5.3906 12 12 0 6.6094-5.3906 12-12 12h-69.75c-6.6094 0-12-5.3906-12-12 0-6.6094 5.3906-12 12-12zm56.906-188.63c5.7188 3.2812 7.6875 10.594 4.4062 16.312s-10.594 7.6875-16.312 4.4062l-60.422-34.875c-5.7188-3.2812-7.6875-10.594-4.4062-16.312s10.594-7.6875 16.312-4.4062zm144.1-133.36c3.3281 5.7188 1.3125 13.078-4.3594 16.359-5.7188 3.3281-13.078 1.3125-16.359-4.3594l-34.875-60.422c-3.3281-5.7188-1.3125-13.078 4.3594-16.359 5.7188-3.3281 13.078-1.3125 16.359 4.3594zm191.48-46.594c0 6.6094-5.3906 12-12 12s-12-5.3906-12-12v-69.75c0-6.6094 5.3906-12 12-12s12 5.3906 12 12zm-8.8125 272.48c20.578 0 39.234 8.3438 52.781 21.891 13.594 13.594 21.938 32.25 21.938 52.828 0 20.625-8.3906 39.328-22.266 53.203-13.875 13.453-32.203 21.516-52.406 21.516-20.625 0-39.328-8.3906-52.828-21.891s-21.891-32.203-21.891-52.828c0-20.578 8.3906-39.281 21.938-52.828 13.453-13.547 32.203-21.938 52.828-21.938zm35.859 38.859c-9.1406-9.1406-21.844-14.812-35.859-14.812s-26.672 5.6719-35.859 14.859c-9.1875 9.0938-14.859 21.797-14.859 35.859 0 14.016 5.6719 26.672 14.859 35.859s21.844 14.859 35.859 14.859c13.734 0 26.156-5.4375 35.531-14.531 9.4688-9.5156 15.141-22.219 15.141-36.188 0-14.062-5.6719-26.766-14.812-35.859zm8.2969-91.734 7.5 2.8594 7.4062 3.3281 34.547-34.547c4.6875-4.6406 12.234-4.5938 16.875 0.046874l45.469 45.375c4.6875 4.6875 4.6875 12.328 0 16.969l-34.547 34.453 3.375 7.4531 2.8594 7.4531h48.797c6.6094 0 12 5.3906 12 12v64.266c0 6.6094-5.3906 12-12 12h-48.797l-2.8594 7.5-3.3281 7.4531 34.5 34.5c4.6875 4.6406 4.7344 12.234 0.09375 16.922l-45.516 45.469c-4.6875 4.6406-12.188 4.5938-16.875 0l-34.547-34.5-7.3594 3.3281-7.5469 2.8594v48.75c0 6.6094-5.3906 12-12 12h-64.266c-6.6094 0-12-5.3906-12-12v-48.797c-5.3906-2.0625-9.7031-3.7969-14.906-6.1875l-34.547 34.547c-4.6875 4.6875-12.328 4.6875-16.969 0l-45.422-45.422c-4.6875-4.6875-4.6875-12.328 0-16.969l34.5-34.5c-2.3906-5.2969-4.125-9.5156-6.1875-14.906h-48.797c-6.6094 0-12-5.3906-12-12v-64.266c0-6.6094 5.3906-12 12-12h48.797l2.8594-7.5 3.3281-7.4062-34.5-34.5c-4.6875-4.6875-4.6875-12.328 0-16.969l45.422-45.375c4.6406-4.6875 12.234-4.7344 16.922-0.09375l34.594 34.547 7.3594-3.3281 7.5-2.8594v-48.797c0-6.6094 5.3906-12 12-12h64.266c6.6094 0 12 5.3906 12 12zm-1.6875 24.938c-4.0781-1.6406-8.2969-3.1875-12.75-4.4062-5.4375-1.125-9.5625-5.9531-9.5625-11.719v-45.609h-40.266v45.609c0 5.2969-3.5625 10.172-8.9062 11.578-4.5938 1.2188-9.1406 2.7656-13.406 4.5938-4.125 1.6875-8.1094 3.6562-11.906 5.7656-4.6875 3.2812-11.25 2.8594-15.422-1.3125l-32.297-32.297-28.453 28.453 32.297 32.297c3.6562 3.75 4.5938 9.7031 1.875 14.438-2.3438 4.0312-4.4531 8.3438-6.3281 12.891-1.6875 4.125-3.1875 8.4844-4.4531 13.125-1.2656 5.25-6 9.2344-11.672 9.2344h-45.609v40.266h45.562c5.25 0.09375 10.078 3.5156 11.531 8.8594 1.1719 4.4062 2.6719 8.7656 4.5469 13.266 1.8281 4.4062 3.7969 8.3906 5.8594 12.141 3.3281 4.6875 2.8594 11.25-1.3125 15.422l-32.25 32.25 28.453 28.453 32.25-32.25c3.75-3.6562 9.7031-4.5938 14.438-1.875 3.9375 2.25 8.0156 4.2656 12.562 6.1875 4.3594 1.7812 8.6719 3.3281 13.125 4.5469 5.4375 1.125 9.5625 5.9531 9.5625 11.719v45.609h40.266v-45.562c0-5.2969 3.5625-10.172 8.9062-11.578 4.6875-1.2656 9.2344-2.8125 13.453-4.5938 4.2656-1.7812 8.3906-3.7969 12.281-6 4.5938-3 10.875-2.4375 14.953 1.5938l32.344 32.297 28.5-28.5-32.297-32.25c-3.75-3.75-4.6875-9.6562-1.9219-14.438 2.2969-3.9844 4.4062-8.2969 6.2812-12.844 1.6406-3.9844 3.1875-8.2969 4.4062-12.797 1.125-5.4844 5.9531-9.5625 11.719-9.5625h45.656v-40.266h-45.609c-5.2969 0-10.172-3.5625-11.578-8.9062-1.2656-4.6406-2.8125-9.1406-4.5469-13.406-1.7812-4.3125-3.8438-8.4844-6.0469-12.328-3-4.6406-2.4375-10.922 1.6406-14.953l32.25-32.203-28.5-28.5-32.344 32.297c-3.75 3.6562-9.6094 4.5938-14.391 1.875-4.0312-2.2969-8.2969-4.4531-12.844-6.3281zm-107.3 491.11v-104.39c-25.172-2.7656-47.766-14.203-64.781-31.219-19.688-19.641-31.875-46.828-31.875-76.828 0-6.6094 5.3906-12 12-12s12 5.3906 12 12c0 23.344 9.5156 44.578 24.797 59.859 15.281 15.375 36.469 24.844 59.859 24.844 6.6094 0 12 5.3906 12 12v115.73h28.875v-152.16c0-6.6094 5.3906-12 12-12s12 5.3906 12 12v152.16h28.828v-115.73c0-6.6094 5.3906-12 12-12 23.391 0 44.625-9.4688 59.859-24.75 15.375-15.328 24.844-36.562 24.844-59.953 0-6.6094 5.3906-12 12-12s12 5.3906 12 12c0 29.906-12.188 57.094-31.875 76.781-17.109 17.062-39.703 28.453-64.875 31.266v104.39h22.219v-2.625c0-16.781 4.5469-32.438 12.797-45.844 8.2969-13.406 20.344-24.422 35.344-31.922 50.906-25.266 93.703-64.406 123.47-112.41 28.781-46.406 45.375-101.25 45.375-160.03 0-84.047-34.031-160.08-89.016-215.06-55.031-55.078-131.06-89.062-215.11-89.062-84 0-160.08 34.031-215.11 89.016-55.031 55.031-89.016 131.06-89.016 215.11 0 58.734 16.641 113.62 45.375 160.03 29.672 47.859 72.234 86.859 123.14 112.27 15.281 7.6406 27.375 18.703 35.672 32.062 8.2969 13.406 12.797 29.062 12.797 45.844v2.6719h22.266zm124.5 245.72h-119.25c1.6406 13.734 7.875 26.016 17.156 35.297 10.875 10.875 25.875 17.625 42.469 17.625 16.547 0 31.594-6.75 42.422-17.625 9.2812-9.2344 15.562-21.562 17.156-35.297zm18.328-73.922h-155.72c-6.8906 0.09375-13.031 2.8594-17.438 7.3125-4.5 4.5469-7.3125 10.781-7.3125 17.625 0 6.8906 2.8125 13.125 7.3594 17.625 4.5 4.5 10.781 7.3594 17.625 7.3594h155.26c6.8438 0 13.125-2.8125 17.625-7.3594 4.5-4.5 7.3594-10.781 7.3594-17.625 0-6.8906-2.8125-13.125-7.3125-17.672-4.4531-4.4062-10.594-7.2188-17.297-7.3125zm26.859-73.922h-209.44c-6.8906 0.09375-12.984 2.8594-17.438 7.3594-4.5469 4.5-7.3594 10.734-7.3594 17.625s2.8125 13.125 7.3594 17.625c4.5 4.5 10.781 7.3594 17.625 7.3594h208.97c6.8906 0 13.125-2.8125 17.625-7.3125 4.5-4.5469 7.3125-10.781 7.3125-17.625 0-6.8906-2.8125-13.125-7.2656-17.625-4.4531-4.4531-10.594-7.2656-17.297-7.3594zm17.531-73.922h-244.64c-6.8438 0-13.125 2.8125-17.625 7.3594-4.5469 4.5-7.3594 10.734-7.3594 17.625s2.8125 13.125 7.3594 17.625c4.5 4.5 10.781 7.3594 17.625 7.3594h244.74c6.8438 0 13.125-2.8125 17.625-7.3594 4.5469-4.5469 7.3594-10.781 7.3594-17.625 0-6.8906-2.8125-13.125-7.2656-17.625-4.5469-4.5469-10.781-7.3594-17.672-7.3594z"/>
 </g>
</svg>