<?xml version="1.0" encoding="UTF-8"?>
<svg width="1200pt" height="1200pt" version="1.1" viewBox="0 0 1200 1200" xmlns="http://www.w3.org/2000/svg">
 <path d="m1146.6 954.94-458.26-810c-18.188-32.25-51.188-51.375-88.312-51.375s-70.125 19.125-88.312 51.375l-458.26 810c-18 31.875-17.812 69.562 0.5625 101.25 18.375 31.5 51.188 50.25 87.75 50.25h916.5c36.562 0 69.375-18.75 87.75-50.25 18.375-31.688 18.562-69.375 0.5625-101.25zm-602.81-70.875c0-30.938 25.312-56.25 56.25-56.25s56.25 25.312 56.25 56.25-25.312 56.25-56.25 56.25-56.25-25.312-56.25-56.25zm114.38-167.63c-1.5 30.938-27.188 55.125-58.125 55.125s-56.625-24.188-58.125-55.125l-13.875-262.69c-1.125-20.062 6-39 19.688-53.438s32.25-22.5 52.312-22.5 38.625 8.0625 52.312 22.5 20.812 33.375 19.688 53.438z"/>
</svg>
